# xmcd
#
# Track frame offsets:
# 150
# 18839
# 39243
# 57618
#
# Disc length: 1156 seconds
#
# Revision: 0
# Processed by: cddbd v1.5.1PL2 Copyright (c) Steve Scherf et al.
# Submitted via: Audion 3.0.2 (http://www.panic.com/audion/)
#
DISCID=29048204
DTITLE=Depeche Mode - 101
DYEAR=1900
DGENRE=
TTITLE0=A Question of Lust
TTITLE1=Master and Servant
TTITLE2=Just Can`t Get Enough
TTITLE3=Everything Counts
EXTD=
EXTT0=
EXTT1=
EXTT2=
EXTT3=
PLAYORDER=
